<?xml version="1.0" standalone="no"?>
<!DOCTYPE svg PUBLIC "-//W3C//DTD SVG 20010904//EN"
 "http://www.w3.org/TR/2001/REC-SVG-20010904/DTD/svg10.dtd">
<svg version="1.0" xmlns="http://www.w3.org/2000/svg"
 width="300.000000pt" height="300.000000pt" viewBox="0 0 300.000000 300.000000"
 preserveAspectRatio="xMidYMid meet">
<metadata>
Created by potrace 1.10, written by Peter Selinger 2001-2011
</metadata>
<g transform="translate(0.000000,300.000000) scale(0.100000,-0.100000)"
fill="#000000" stroke="none">
<path d="M1275 2585 c-248 -47 -460 -159 -640 -340 -186 -187 -299 -403 -340
-655 -63 -393 66 -785 351 -1060 243 -235 503 -341 839 -341 346 0 616 110
856 350 154 154 261 336 313 531 178 662 -208 1323 -873 1497 -123 32 -379 41
-506 18z m495 -88 c168 -45 288 -105 427 -214 413 -321 549 -920 315 -1388
-165 -330 -478 -566 -832 -625 -92 -16 -291 -16 -383 -1 -148 25 -320 94 -451
183 -80 55 -215 185 -275 267 -245 331 -289 772 -116 1157 100 221 333 452
557 554 164 74 305 101 508 96 127 -3 172 -8 250 -29z m-1131 -304 c-24 -26
-47 -50 -50 -53 -4 -3 -35 -50 -71 -105 -88 -136 -125 -224 -168 -395 -19 -74
-24 -140 -22 -271 1 -120 6 -153 37 -275 20 -76 40 -143 45 -148 6 -6 10 -15
10 -22 0 -7 22 -51 50 -99 27 -48 50 -90 50 -95 0 -5 3 -10 8 -12 4 -1 27 -28
52 -58 24 -30 54 -64 65 -75 11 -11 27 -29 35 -40 14 -20 14 -20 -10 0 -13 11
-35 33 -50 50 -14 16 -32 37 -41 46 -62 62 -199 296 -199 339 0 9 -4 20 -9 25
-6 6 -12 21 -15 35 -2 14 -7 32 -10 40 -3 8 -8 26 -10 40 -3 14 -10 52 -16 85
-12 58 -9 365 3 411 3 11 13 51 22 89 29 114 103 271 170 360 60 79 157 186
164 180 2 -3 -15 -27 -40 -52z"/>
<path d="M1370 2333 c-18 -23 -21 -36 -16 -78 3 -27 6 -69 6 -93 0 -55 33 -92
83 -92 49 0 77 26 84 78 l6 42 -37 0 c-35 0 -36 -1 -36 -35 0 -51 -26 -46 -34
6 -4 23 -5 43 -4 44 2 2 25 5 53 7 l49 5 -3 49 c-4 74 -21 94 -81 94 -41 0
-52 -4 -70 -27z m86 -61 c6 -28 4 -32 -15 -32 -17 0 -21 6 -21 33 0 59 24 59
36 -1z"/>
<path d="M1610 2347 c0 -9 -3 -22 -6 -31 -5 -13 1 -16 30 -16 20 0 36 -3 36
-6 0 -3 -23 -44 -50 -91 -75 -127 -75 -126 6 -140 74 -13 84 -11 84 17 0 12
-11 21 -34 27 l-34 8 49 85 c26 47 51 97 54 111 6 25 5 26 -48 33 -31 3 -62 9
-71 12 -10 4 -16 1 -16 -9z"/>
<path d="M1168 2319 c-10 -5 -18 -17 -18 -25 0 -11 -4 -12 -19 -4 -26 13 -71
-4 -72 -27 0 -11 -3 -13 -6 -5 -6 14 -14 15 -46 3 l-25 -10 44 -123 c24 -68
46 -128 49 -135 3 -9 12 -10 35 -1 23 7 30 15 25 27 -58 149 -76 235 -46 217
4 -3 25 -55 46 -114 l38 -109 29 11 c15 6 28 15 28 21 0 5 -16 55 -35 109 -23
63 -32 103 -26 109 16 16 25 1 61 -107 34 -102 36 -106 60 -101 14 4 29 10 33
14 8 8 -65 224 -84 247 -13 16 -47 18 -71 3z"/>
<path d="M1838 2271 c-14 -12 -39 -55 -57 -103 -39 -97 -35 -122 21 -153 57
-30 86 -15 125 65 55 111 56 168 3 195 -39 20 -62 19 -92 -4z m42 -131 c-18
-44 -36 -83 -41 -86 -22 -13 -19 31 6 93 32 80 44 98 58 84 6 -6 -2 -38 -23
-91z"/>
<path d="M2043 2133 c-23 -32 -59 -83 -81 -114 l-41 -56 28 -21 28 -20 63 89
c69 98 77 106 92 91 7 -7 -12 -40 -60 -105 l-71 -95 24 -16 c13 -9 28 -16 32
-16 8 1 118 154 141 197 19 35 -8 77 -44 70 -18 -3 -24 -1 -20 8 5 14 -23 45
-40 45 -6 0 -28 -26 -51 -57z"/>
<path d="M845 2160 c-56 -23 -80 -76 -52 -113 11 -16 14 -16 35 -2 16 12 21
22 16 41 -8 30 20 34 36 4 8 -15 6 -27 -10 -52 -29 -48 -26 -81 14 -122 48
-52 96 -45 96 14 1 22 2 23 11 8 9 -17 12 -17 34 -2 14 9 25 20 25 25 0 16
-138 196 -155 203 -20 7 -24 7 -50 -4z m99 -160 c30 -46 31 -50 12 -50 -19 0
-56 47 -56 71 0 30 15 22 44 -21z"/>
<path d="M607 2020 c-26 -16 -49 -69 -43 -96 8 -30 171 -171 208 -180 41 -9
78 18 78 57 0 25 3 29 19 24 39 -12 29 13 -21 56 -106 90 -96 85 -126 56 -25
-25 -25 -27 -8 -46 10 -11 23 -18 30 -15 6 2 25 -9 40 -25 25 -26 27 -31 13
-37 -12 -4 -40 12 -88 52 -74 60 -86 75 -74 94 5 8 13 6 26 -6 19 -17 21 -17
45 8 l25 25 -25 17 c-34 22 -77 29 -99 16z"/>
<path d="M1332 1998 c-7 -7 -12 -21 -12 -32 0 -19 0 -19 20 1 18 20 28 21 150
19 116 -1 132 -4 151 -22 26 -26 29 -115 5 -139 -9 -9 -16 -27 -16 -40 0 -16
-7 -25 -25 -29 -30 -8 -33 -26 -4 -26 39 0 59 19 59 55 0 41 49 95 86 95 13 0
24 5 24 10 0 6 -13 10 -29 10 -21 0 -32 6 -36 19 -3 11 -15 23 -26 26 -12 4
-19 15 -19 30 0 31 -9 33 -176 34 -95 0 -144 -3 -152 -11z"/>
<path d="M2265 1988 c-39 -22 -144 -120 -151 -140 -13 -42 37 -108 83 -108 10
0 33 9 52 21 l34 21 -26 26 c-25 24 -27 25 -45 9 -10 -9 -24 -17 -30 -17 -23
0 -12 28 22 53 l33 26 29 -39 c16 -22 32 -40 35 -40 11 0 89 89 89 102 0 25
-40 79 -66 88 -31 12 -34 12 -59 -2z m60 -59 c4 -6 -3 -21 -16 -35 -20 -22
-25 -23 -38 -10 -13 13 -11 17 10 35 28 23 35 25 44 10z"/>
<path d="M1357 1952 c-37 -41 -6 -112 48 -112 32 0 65 33 65 64 0 29 -42 66
-75 66 -12 0 -29 -8 -38 -18z m81 -14 c7 -7 12 -21 12 -33 0 -12 -5 -26 -12
-33 -7 -7 -21 -12 -33 -12 -12 0 -26 5 -33 12 -13 13 -16 60 -5 71 11 11 58 8
71 -5z"/>
<path d="M1527 1952 c-36 -40 -6 -112 46 -112 27 0 67 38 67 64 0 25 -45 66
-73 66 -13 0 -31 -8 -40 -18z m78 -18 c19 -20 16 -53 -6 -67 -24 -15 -66 -1
-72 25 -13 49 41 78 78 42z"/>
<path d="M1282 1938 c-7 -7 -12 -18 -12 -25 0 -8 -13 -13 -35 -13 -19 0 -35
-4 -35 -10 0 -5 14 -10 30 -10 17 0 30 -4 30 -9 0 -5 7 -17 16 -25 27 -27 34
-18 34 44 0 60 -6 70 -28 48z"/>
<path d="M1320 1780 c0 -43 3 -50 19 -50 27 0 51 10 51 22 0 6 -6 8 -14 5 -20
-8 -36 13 -36 45 0 15 -4 28 -10 28 -5 0 -10 -22 -10 -50z"/>
<path d="M1413 1724 c4 -4 36 -7 72 -8 35 -1 70 -7 77 -14 7 -7 28 -12 48 -12
19 0 45 -7 57 -15 15 -11 22 -12 25 -3 3 7 13 2 26 -12 l22 -23 -23 -11 c-12
-7 -23 -21 -25 -33 -4 -25 63 -152 84 -160 24 -9 62 6 69 26 3 11 20 29 37 39
31 20 31 20 59 0 15 -12 34 -18 43 -15 21 8 58 84 54 110 -5 36 -35 33 -52 -6
-19 -46 -29 -51 -52 -26 -19 21 -19 22 1 35 56 37 60 42 47 55 -14 15 -68 0
-114 -33 -23 -16 -26 -23 -18 -39 14 -25 26 -24 34 4 6 22 6 22 20 -6 9 -15
13 -34 9 -43 -5 -13 -8 -13 -29 1 -16 10 -30 13 -40 7 -28 -16 -74 -1 -89 29
-17 32 -19 53 -5 44 20 -12 10 34 -13 61 -21 24 -32 27 -100 32 -42 2 -74 9
-71 13 3 5 -32 9 -77 9 -45 0 -79 -3 -76 -6z m357 -209 c0 -17 17 -20 22 -5 2
6 8 -2 14 -18 10 -27 9 -29 -8 -24 -29 7 -63 62 -38 62 6 0 10 -7 10 -15z"/>
<path d="M1280 1700 c-44 -11 -63 -36 -56 -78 10 -65 -33 -102 -93 -80 -22 8
-61 -8 -61 -25 0 -4 13 -15 28 -24 16 -9 33 -26 38 -37 6 -14 20 -22 41 -24
28 -3 35 1 45 25 6 15 18 36 27 46 21 25 31 104 15 118 -7 6 -18 7 -25 3 -6
-4 -1 7 12 25 23 32 39 40 39 20 0 -7 10 -5 25 5 13 9 40 16 60 16 19 0 35 5
35 10 0 12 -80 12 -130 0z m-86 -197 c5 -11 1 -22 -10 -30 -23 -16 -42 -17
-26 -1 7 7 12 20 12 30 0 23 16 23 24 1z"/>
<path d="M1340 1605 l0 -65 149 0 148 0 7 56 c3 30 4 60 1 65 -4 5 -73 9 -156
9 l-149 0 0 -65z m290 0 l0 -45 -135 0 -135 0 0 45 0 45 135 0 135 0 0 -45z"/>
<path d="M990 1641 c0 -11 12 -23 30 -31 41 -17 43 -23 15 -50 l-24 -22 -18
38 c-21 45 -47 51 -51 12 -4 -33 33 -108 54 -108 24 0 64 31 64 50 0 10 7 31
15 46 15 28 15 29 21 7 7 -27 19 -30 28 -7 11 29 6 35 -46 59 -64 30 -88 32
-88 6z"/>
<path d="M1666 1527 c-3 -12 -6 -36 -6 -54 0 -17 -4 -43 -10 -58 l-10 -26
-157 3 -158 3 -3 40 c-7 115 -32 147 -32 41 0 -103 -14 -96 197 -96 106 0 182
4 179 9 -3 5 1 11 9 15 11 4 15 22 15 70 0 66 -13 94 -24 53z"/>
<path d="M1343 1508 c-2 -5 33 -7 79 -7 84 2 77 6 -20 11 -30 2 -56 0 -59 -4z"/>
<path d="M1558 1503 c18 -2 45 -2 60 0 15 2 0 4 -33 4 -33 0 -45 -2 -27 -4z"/>
<path d="M1344 1478 c-3 -4 21 -7 53 -7 60 1 56 5 -10 11 -21 2 -40 0 -43 -4z"/>
<path d="M2372 1456 c-12 -43 -36 -65 -69 -66 -13 0 -23 -4 -23 -10 0 -5 10
-10 23 -10 33 -1 57 -23 69 -66 l11 -39 8 35 c9 40 41 70 75 70 13 0 24 5 24
10 0 6 -11 10 -24 10 -34 0 -66 30 -75 70 l-8 35 -11 -39z"/>
<path d="M1528 1473 c23 -2 61 -2 85 0 23 2 4 4 -43 4 -47 0 -66 -2 -42 -4z"/>
<path d="M610 1445 c0 -36 -24 -65 -64 -77 l-41 -11 35 -9 c42 -11 70 -41 70
-75 0 -13 4 -21 10 -18 6 3 10 17 10 30 0 27 42 65 74 66 15 0 9 6 -20 19 -41
18 -54 35 -54 71 0 10 -4 19 -10 19 -5 0 -10 -7 -10 -15z"/>
<path d="M1310 1355 c0 -8 7 -15 15 -15 26 0 37 -37 20 -69 -8 -17 -15 -44
-15 -60 0 -17 -6 -34 -14 -38 -22 -13 -28 -47 -11 -69 10 -13 14 -44 15 -94
l0 -75 -70 -40 c-95 -55 -93 -64 15 -79 38 -5 116 15 140 36 5 5 10 63 11 131
3 155 8 244 14 250 3 3 30 7 60 8 l55 3 5 -34 c3 -19 1 -45 -4 -58 -7 -16 -6
-29 2 -43 7 -12 12 -62 12 -133 0 -125 -1 -123 70 -149 34 -12 58 -14 102 -8
32 4 61 11 64 14 11 11 -11 30 -75 67 l-61 35 0 72 c0 40 5 84 12 98 10 21 9
32 -4 58 -13 27 -37 91 -48 132 -6 24 2 43 20 48 23 6 27 27 5 27 -32 0 -53
-39 -50 -92 2 -28 9 -54 15 -58 8 -5 5 -9 -8 -12 -15 -4 -21 0 -25 18 -2 13 1
26 7 29 6 2 1 2 -11 0 -12 -3 -24 -1 -28 5 -9 14 -91 13 -115 -2 -17 -11 -23
-9 -42 10 -12 12 -17 22 -11 22 16 0 6 29 -20 58 -23 25 -47 29 -47 7z m91
-118 c-1 -4 -1 -13 -1 -21 0 -9 -8 -12 -25 -8 -14 2 -22 9 -19 14 3 5 13 7 21
4 11 -5 13 -2 9 10 -3 9 -1 14 5 12 6 -2 10 -7 10 -11z m-1 -57 c0 -5 -5 -10
-11 -10 -8 0 -8 -4 -1 -13 7 -8 9 -29 5 -50 -4 -30 -10 -37 -28 -37 -18 0 -24
7 -28 37 -4 20 -2 42 4 49 6 7 8 18 4 24 -4 6 6 10 24 10 17 0 31 -4 31 -10z
m234 -12 c3 -13 6 -40 6 -60 0 -35 -2 -38 -28 -38 -24 0 -28 4 -31 33 -1 17
-4 41 -5 52 -3 29 2 35 28 35 16 0 26 -7 30 -22z m-244 -123 c0 -10 -9 -14
-25 -13 -29 3 -33 14 -7 21 30 8 32 7 32 -8z m235 6 c3 -5 1 -13 -5 -16 -8 -5
-7 -11 1 -22 10 -12 10 -16 0 -23 -8 -4 -11 -12 -7 -18 3 -6 2 -13 -4 -17 -10
-6 -12 5 -12 65 0 17 1 32 1 35 2 9 20 5 26 -4z m-239 -59 c-7 -11 -46 -4 -46
8 0 12 33 18 44 9 4 -4 5 -12 2 -17z m8 -68 c17 -43 -68 -93 -128 -76 l-29 8
36 21 c20 12 42 31 49 42 16 25 63 28 72 5z m272 -13 c14 -17 34 -33 44 -36
26 -8 25 -21 -2 -29 -33 -8 -98 14 -115 41 -36 54 30 75 73 24z"/>
<path d="M797 1002 c-23 -25 -23 -50 -1 -31 13 10 17 10 25 -2 14 -23 12 -26
-48 -70 -32 -23 -62 -45 -67 -50 -5 -4 1 -21 14 -38 l22 -31 26 20 c75 55 74
54 61 83 -10 21 -10 30 -1 39 9 9 12 8 12 -4 0 -8 9 -27 21 -42 15 -20 29 -26
57 -26 20 0 44 5 52 10 12 8 9 10 -11 10 -32 0 -44 14 -53 61 -13 75 -72 112
-109 71z"/>
<path d="M2175 966 c-40 -17 -53 -34 -63 -82 -7 -33 -12 -39 -32 -36 -13 1
-22 1 -19 -2 22 -21 226 -166 233 -166 6 0 6 4 -1 11 -8 8 -8 19 0 40 10 26 9
31 -12 45 l-22 16 21 23 c25 26 29 79 10 115 -6 12 -27 28 -45 36 -40 16 -33
16 -70 0z m55 -68 c52 -26 64 -60 30 -78 -18 -10 -29 -6 -76 30 -30 22 -54 44
-54 49 0 28 43 28 100 -1z"/>
<path d="M931 776 c-58 -32 -68 -108 -20 -155 38 -38 70 -47 110 -31 39 17 59
46 59 90 0 42 -20 75 -60 95 -35 18 -57 18 -89 1z m77 -93 c-4 -80 -17 -105
-44 -83 -13 11 -15 28 -12 81 4 74 21 107 45 87 11 -9 14 -30 11 -85z"/>
<path d="M1985 780 c-70 -28 -89 -109 -39 -161 39 -41 91 -40 139 2 29 26 35
38 35 71 0 71 -68 116 -135 88z m55 -67 c45 -18 70 -41 63 -59 -7 -19 -33 -18
-97 6 -65 25 -84 43 -66 65 13 16 39 13 100 -12z"/>
<path d="M1720 687 c0 -7 -11 -23 -24 -35 l-25 -21 31 -88 c18 -48 33 -90 34
-91 2 -2 19 1 39 8 28 9 35 16 30 29 -50 121 -54 139 -39 152 14 11 18 10 30
-6 8 -10 17 -35 20 -54 14 -80 61 -105 109 -56 28 27 36 56 10 35 -20 -16 -45
3 -45 35 0 12 -9 34 -21 49 -16 20 -29 26 -59 26 -21 0 -42 -4 -45 -10 -10
-17 -25 -11 -25 9 0 11 -4 23 -10 26 -5 3 -10 0 -10 -8z"/>
<path d="M1112 683 c-10 -4 -8 -8 5 -18 16 -12 17 -17 4 -47 -26 -64 -25 -83
5 -112 17 -15 40 -26 56 -26 33 0 35 -10 10 -33 -26 -24 -39 -21 -57 13 -23
44 -62 50 -92 16 -26 -31 -32 -56 -7 -35 13 10 19 8 40 -14 45 -49 100 -28
171 64 38 50 79 127 71 134 -6 6 -81 35 -90 35 -5 0 -4 -9 2 -19 25 -48 -2
-151 -40 -151 -32 0 -33 21 -5 81 30 65 31 73 5 99 -19 19 -50 24 -78 13z"/>
<path d="M1624 653 c-9 -15 -15 -16 -38 -5 -62 28 -119 0 -119 -58 0 -39 17
-54 89 -75 60 -17 91 -42 75 -58 -8 -8 -18 -5 -33 10 -43 38 -67 46 -92 29
-13 -8 -27 -27 -30 -42 -8 -31 2 -46 15 -23 8 15 12 15 53 1 40 -15 45 -15 70
2 69 44 52 104 -36 131 -60 18 -101 42 -93 55 9 15 19 12 51 -15 16 -14 39
-25 51 -25 27 0 56 40 51 70 -3 19 -4 19 -14 3z"/>
</g>
</svg>
